<svg xmlns="http://www.w3.org/2000/svg" role="img" width="22.87640380859375" height="8.269662857055664" style=""><rect id="backgroundrect" width="100%" height="100%" x="0" y="0" fill="none" stroke="none"/><title>Matrix icon</title><g class="currentLayer" style=""><title>Layer 1</title><path d="M.632.55v22.9H2.28V24H0V0h2.28v.55zm7.043 7.26v1.157h.033c.309-.443.683-.784 1.117-1.024.433-.245.936-.365 1.5-.365.54 0 1.033.107 1.481.314.448.208.785.582 1.02 1.108.254-.374.6-.706 1.034-.992.434-.287.95-.43 1.546-.43.453 0 .872.056 1.26.167.388.11.716.286.993.53.276.245.489.559.646.951.152.392.23.863.23 1.417v5.728h-2.349V11.52c0-.286-.01-.559-.032-.812a1.755 1.755 0 0 0-.18-.66 1.106 1.106 0 0 0-.438-.448c-.194-.11-.457-.166-.785-.166-.332 0-.6.064-.803.189a1.38 1.38 0 0 0-.48.499 1.946 1.946 0 0 0-.231.696 5.56 5.56 0 0 0-.06.785v4.768h-2.35v-4.8c0-.254-.004-.503-.018-.752a2.074 2.074 0 0 0-.143-.688 1.052 1.052 0 0 0-.415-.503c-.194-.125-.476-.19-.854-.19-.111 0-.259.024-.439.074-.18.051-.36.143-.53.282-.171.138-.319.337-.439.595-.12.259-.18.6-.18 1.02v4.966H5.46V7.81zm15.693 15.64V.55H21.72V0H24v24h-2.28v-.55z" id="svg_1" class="selected" fill="#ffffff" fill-opacity="1"/><path d="M0.6320000000000001,0.55 v22.9 H2.2800000000000002 V24 H0 V0 h2.2800000000000002 v0.55 zm7.043,7.26 v1.157 h0.03300000000000001 c0.30900000000000005,-0.44300000000000006 0.6830000000000002,-0.784 1.117,-1.024 c0.43300000000000005,-0.24500000000000002 0.936,-0.36500000000000005 1.5,-0.36500000000000005 c0.54,0 1.033,0.10700000000000001 1.481,0.31400000000000006 c0.44800000000000006,0.20800000000000002 0.785,0.5820000000000001 1.02,1.108 c0.254,-0.37400000000000005 0.6000000000000001,-0.7060000000000001 1.034,-0.992 c0.43400000000000005,-0.28700000000000003 0.9500000000000001,-0.43000000000000005 1.546,-0.43000000000000005 c0.453,0 0.8720000000000001,0.05600000000000001 1.26,0.16700000000000004 c0.38800000000000007,0.11000000000000001 0.7160000000000001,0.28600000000000003 0.993,0.53 c0.276,0.24500000000000002 0.48900000000000005,0.559 0.6460000000000001,0.9510000000000001 c0.15200000000000002,0.39200000000000007 0.23,0.8630000000000001 0.23,1.417 v5.728 h-2.349 V11.52 c0,-0.28600000000000003 -0.010000000000000002,-0.559 -0.03200000000000001,-0.812 a1.7550000000000001,1.7550000000000001 0 0 0 -0.18000000000000002,-0.6600000000000001 a1.106,1.106 0 0 0 -0.43800000000000006,-0.44800000000000006 c-0.19400000000000003,-0.11000000000000001 -0.457,-0.16600000000000004 -0.785,-0.16600000000000004 c-0.3320000000000001,0 -0.6000000000000001,0.06400000000000002 -0.803,0.18900000000000003 a1.3800000000000001,1.3800000000000001 0 0 0 -0.48000000000000004,0.49900000000000005 a1.9460000000000002,1.9460000000000002 0 0 0 -0.231,0.6960000000000002 a5.5600000000000005,5.5600000000000005 0 0 0 -0.06000000000000001,0.785 v4.768 h-2.35 v-4.8 c0,-0.254 -0.004000000000000001,-0.503 -0.018000000000000002,-0.7520000000000001 a2.074,2.074 0 0 0 -0.14300000000000002,-0.6880000000000002 a1.052,1.052 0 0 0 -0.41500000000000004,-0.503 c-0.19400000000000003,-0.125 -0.47600000000000003,-0.19000000000000003 -0.8540000000000001,-0.19000000000000003 c-0.11100000000000002,0 -0.259,0.024000000000000004 -0.43900000000000006,0.07400000000000001 c-0.18000000000000002,0.05100000000000001 -0.36000000000000004,0.14300000000000002 -0.53,0.28200000000000003 c-0.171,0.138 -0.31900000000000006,0.3370000000000001 -0.43900000000000006,0.5950000000000001 c-0.12000000000000001,0.259 -0.18000000000000002,0.6000000000000001 -0.18000000000000002,1.02 v4.966 H5.46 V7.8100000000000005 zm15.693,15.64 V0.55 H21.72 V0 H24 v24 h-2.2800000000000002 v-0.55 z" class="selected" id="svg_2" fill="#ffffff" fill-opacity="1"/><path d="M0.6320000000000002,0.55 v22.9 H2.2800000000000002 V24 H0 V0 h2.2800000000000002 v0.55 zm7.043,7.26 v1.157 h0.033000000000000015 c0.3090000000000001,-0.4430000000000001 0.6830000000000004,-0.784 1.117,-1.024 c0.4330000000000001,-0.24500000000000005 0.936,-0.3650000000000001 1.5,-0.3650000000000001 c0.54,0 1.033,0.10700000000000003 1.481,0.3140000000000001 c0.4480000000000001,0.20800000000000005 0.785,0.5820000000000002 1.02,1.108 c0.254,-0.3740000000000001 0.6000000000000002,-0.7060000000000002 1.034,-0.992 c0.4340000000000001,-0.2870000000000001 0.9500000000000002,-0.4300000000000001 1.546,-0.4300000000000001 c0.453,0 0.8720000000000002,0.056000000000000015 1.26,0.16700000000000007 c0.3880000000000001,0.11000000000000003 0.7160000000000002,0.2860000000000001 0.993,0.53 c0.276,0.24500000000000005 0.4890000000000001,0.559 0.6460000000000002,0.9510000000000002 c0.15200000000000005,0.3920000000000001 0.23,0.8630000000000002 0.23,1.417 v5.728 h-2.349 V11.52 c0,-0.2860000000000001 -0.010000000000000004,-0.559 -0.032000000000000015,-0.812 a1.7550000000000003,1.7550000000000003 0 0 0 -0.18000000000000005,-0.6600000000000003 a1.106,1.106 0 0 0 -0.4380000000000001,-0.4480000000000001 c-0.19400000000000006,-0.11000000000000003 -0.457,-0.16600000000000006 -0.785,-0.16600000000000006 c-0.3320000000000002,0 -0.6000000000000002,0.06400000000000003 -0.803,0.18900000000000006 a1.3800000000000001,1.3800000000000001 0 0 0 -0.4800000000000001,0.4990000000000001 a1.9460000000000002,1.9460000000000002 0 0 0 -0.231,0.6960000000000004 a5.5600000000000005,5.5600000000000005 0 0 0 -0.06000000000000002,0.785 v4.768 h-2.35 v-4.8 c0,-0.254 -0.004000000000000002,-0.503 -0.018000000000000006,-0.7520000000000002 a2.074,2.074 0 0 0 -0.14300000000000004,-0.6880000000000004 a1.052,1.052 0 0 0 -0.4150000000000001,-0.503 c-0.19400000000000006,-0.125 -0.4760000000000001,-0.19000000000000006 -0.8540000000000002,-0.19000000000000006 c-0.11100000000000003,0 -0.259,0.024000000000000007 -0.4390000000000001,0.07400000000000002 c-0.18000000000000005,0.05100000000000002 -0.3600000000000001,0.14300000000000004 -0.53,0.2820000000000001 c-0.171,0.138 -0.3190000000000001,0.3370000000000002 -0.4390000000000001,0.5950000000000002 c-0.12000000000000002,0.259 -0.18000000000000005,0.6000000000000002 -0.18000000000000005,1.02 v4.966 H5.46 V7.8100000000000005 zm15.693,15.64 V0.55 H21.72 V0 H24 v24 h-2.2800000000000002 v-0.55 z" class="selected" id="svg_4" fill="#ffffff" fill-opacity="1"/><path d="M0.6320000000000002,0.55 v22.9 H2.2800000000000002 V24 H0 V0 h2.2800000000000002 v0.55 zm7.043,7.26 v1.157 h0.033000000000000015 c0.3090000000000001,-0.4430000000000001 0.6830000000000004,-0.784 1.117,-1.024 c0.4330000000000001,-0.24500000000000005 0.936,-0.3650000000000001 1.5,-0.3650000000000001 c0.54,0 1.033,0.10700000000000003 1.481,0.3140000000000001 c0.4480000000000001,0.20800000000000005 0.785,0.5820000000000002 1.02,1.108 c0.254,-0.3740000000000001 0.6000000000000002,-0.7060000000000002 1.034,-0.992 c0.4340000000000001,-0.2870000000000001 0.9500000000000002,-0.4300000000000001 1.546,-0.4300000000000001 c0.453,0 0.8720000000000002,0.056000000000000015 1.26,0.16700000000000007 c0.3880000000000001,0.11000000000000003 0.7160000000000002,0.2860000000000001 0.993,0.53 c0.276,0.24500000000000005 0.4890000000000001,0.559 0.6460000000000002,0.9510000000000002 c0.15200000000000005,0.3920000000000001 0.23,0.8630000000000002 0.23,1.417 v5.728 h-2.349 V11.52 c0,-0.2860000000000001 -0.010000000000000004,-0.559 -0.032000000000000015,-0.812 a1.7550000000000003,1.7550000000000003 0 0 0 -0.18000000000000005,-0.6600000000000003 a1.106,1.106 0 0 0 -0.4380000000000001,-0.4480000000000001 c-0.19400000000000006,-0.11000000000000003 -0.457,-0.16600000000000006 -0.785,-0.16600000000000006 c-0.3320000000000002,0 -0.6000000000000002,0.06400000000000003 -0.803,0.18900000000000006 a1.3800000000000001,1.3800000000000001 0 0 0 -0.4800000000000001,0.4990000000000001 a1.9460000000000002,1.9460000000000002 0 0 0 -0.231,0.6960000000000004 a5.5600000000000005,5.5600000000000005 0 0 0 -0.06000000000000002,0.785 v4.768 h-2.35 v-4.8 c0,-0.254 -0.004000000000000002,-0.503 -0.018000000000000006,-0.7520000000000002 a2.074,2.074 0 0 0 -0.14300000000000004,-0.6880000000000004 a1.052,1.052 0 0 0 -0.4150000000000001,-0.503 c-0.19400000000000006,-0.125 -0.4760000000000001,-0.19000000000000006 -0.8540000000000002,-0.19000000000000006 c-0.11100000000000003,0 -0.259,0.024000000000000007 -0.4390000000000001,0.07400000000000002 c-0.18000000000000005,0.05100000000000002 -0.3600000000000001,0.14300000000000004 -0.53,0.2820000000000001 c-0.171,0.138 -0.3190000000000001,0.3370000000000002 -0.4390000000000001,0.5950000000000002 c-0.12000000000000002,0.259 -0.18000000000000005,0.6000000000000002 -0.18000000000000005,1.02 v4.966 H5.46 V7.8100000000000005 zm15.693,15.64 V0.55 H21.72 V0 H24 v24 h-2.2800000000000002 v-0.55 z" class="selected" id="svg_3" fill="#ffffff" fill-opacity="1"/></g></svg>